<svg xmlns="http://www.w3.org/2000/svg" height="40" viewBox="0 -960 960 960" width="40"><path d="M560-570.667v-54.666q33-14 67.5-21t72.5-7q26 0 51 4t49 10v50.666q-24-9-48.5-13.5t-51.5-4.5q-38 0-73 9.5t-67 26.5Zm0 220V-406q33-13.666 67.5-20.5 34.5-6.833 72.5-6.833 26 0 51 4t49 10v50.666q-24-9-48.5-13.5t-51.5-4.5q-38 0-73 9t-67 27Zm0-110v-54.666q33-14 67.5-21t72.5-7q26 0 51 4t49 10v50.666q-24-9-48.5-13.5t-51.5-4.5q-38 0-73 9.5t-67 26.5Zm-45.333 201.334q48-23.667 94.833-35.5 46.833-11.833 98.5-11.833 37.334 0 75.834 6t69.5 16.666v-418q-33.667-16-70.715-23.667-37.049-7.667-74.619-7.667-51.667 0-100.667 15t-92.666 43.001v416ZM481.333-160q-50-38-108.666-58.667Q314-239.333 252-239.333q-38.358 0-75.346 9.666-36.987 9.667-72.654 25-22.4 11-43.2-2.333Q40-220.334 40-245.334v-469.333q0-13.666 6.5-25.333Q53-751.667 66-758q43.667-21 90.5-31.5T252-800q61.333 0 119.5 16.333Q429.667-767.333 481.333-734q51-33.333 108.5-49.667Q647.333-800 708-800q48.786 0 95.226 10.5 46.441 10.5 90.107 31.5 13 6.333 19.834 18Q920-728.333 920-714.667v469.333q0 26.263-21.5 39.965-21.5 13.702-43.167.702-35-16-71.987-25.333-36.988-9.333-75.346-9.333-62 0-119.333 21-57.334 21-107.334 58.333Z"/></svg>